<?xml version="1.0" encoding="UTF-8" standalone="no"?>
<!DOCTYPE svg PUBLIC "-//W3C//DTD SVG 1.1//EN"
 "http://www.w3.org/Graphics/SVG/1.1/DTD/svg11.dtd">
<!-- Generated by graphviz version 2.38.0 (20140413.2041)
 -->
<!-- Title: G Pages: 1 -->
<svg width="518pt" height="1059pt"
 viewBox="0.00 0.00 518.46 1059.00" xmlns="http://www.w3.org/2000/svg" xmlns:xlink="http://www.w3.org/1999/xlink">
<g id="graph0" class="graph" transform="scale(1 1) rotate(0) translate(4 1055)">
<title>G</title>
<polygon fill="white" stroke="none" points="-4,4 -4,-1055 514.459,-1055 514.459,4 -4,4"/>
<g id="clust1" class="cluster"><title>cluster_Global</title>
<path fill="none" stroke="gray" d="M66.3118,-98C66.3118,-98 490.459,-98 490.459,-98 496.459,-98 502.459,-104 502.459,-110 502.459,-110 502.459,-1031 502.459,-1031 502.459,-1037 496.459,-1043 490.459,-1043 490.459,-1043 66.3118,-1043 66.3118,-1043 60.3118,-1043 54.3118,-1037 54.3118,-1031 54.3118,-1031 54.3118,-110 54.3118,-110 54.3118,-104 60.3118,-98 66.3118,-98"/>
<text text-anchor="middle" x="278.385" y="-1030.2" font-family="Times,serif" font-size="11.00" fill="gray">Global</text>
</g>
<g id="clust2" class="cluster"><title>cluster_\Components</title>
<path fill="none" stroke="gray" d="M74.3118,-777C74.3118,-777 482.459,-777 482.459,-777 488.459,-777 494.459,-783 494.459,-789 494.459,-789 494.459,-1004 494.459,-1004 494.459,-1010 488.459,-1016 482.459,-1016 482.459,-1016 74.3118,-1016 74.3118,-1016 68.3118,-1016 62.3118,-1010 62.3118,-1004 62.3118,-1004 62.3118,-789 62.3118,-789 62.3118,-783 68.3118,-777 74.3118,-777"/>
<text text-anchor="middle" x="278.385" y="-1003.2" font-family="Times,serif" font-size="11.00" fill="gray">Components</text>
</g>
<g id="clust3" class="cluster"><title>cluster_\Components\FileUploader</title>
<path fill="none" stroke="gray" d="M82.3118,-864C82.3118,-864 474.459,-864 474.459,-864 480.459,-864 486.459,-870 486.459,-876 486.459,-876 486.459,-977 486.459,-977 486.459,-983 480.459,-989 474.459,-989 474.459,-989 82.3118,-989 82.3118,-989 76.3118,-989 70.3118,-983 70.3118,-977 70.3118,-977 70.3118,-876 70.3118,-876 70.3118,-870 76.3118,-864 82.3118,-864"/>
<text text-anchor="middle" x="278.385" y="-976.2" font-family="Times,serif" font-size="11.00" fill="gray">FileUploader</text>
</g>
<g id="clust4" class="cluster"><title>cluster_\Components\Notifications</title>
<path fill="none" stroke="gray" d="M357.541,-785C357.541,-785 444.754,-785 444.754,-785 450.754,-785 456.754,-791 456.754,-797 456.754,-797 456.754,-844 456.754,-844 456.754,-850 450.754,-856 444.754,-856 444.754,-856 357.541,-856 357.541,-856 351.541,-856 345.541,-850 345.541,-844 345.541,-844 345.541,-797 345.541,-797 345.541,-791 351.541,-785 357.541,-785"/>
<text text-anchor="middle" x="401.148" y="-843.2" font-family="Times,serif" font-size="11.00" fill="gray">Notifications</text>
</g>
<g id="clust5" class="cluster"><title>cluster_\Controllers</title>
<path fill="none" stroke="gray" d="M88.9129,-698C88.9129,-698 448.055,-698 448.055,-698 454.055,-698 460.055,-704 460.055,-710 460.055,-710 460.055,-757 460.055,-757 460.055,-763 454.055,-769 448.055,-769 448.055,-769 88.9129,-769 88.9129,-769 82.9129,-769 76.9129,-763 76.9129,-757 76.9129,-757 76.9129,-710 76.9129,-710 76.9129,-704 82.9129,-698 88.9129,-698"/>
<text text-anchor="middle" x="268.484" y="-756.2" font-family="Times,serif" font-size="11.00" fill="gray">Controllers</text>
</g>
<g id="clust6" class="cluster"><title>cluster_\Core</title>
<path fill="none" stroke="gray" d="M327.836,-185C327.836,-185 474.459,-185 474.459,-185 480.459,-185 486.459,-191 486.459,-197 486.459,-197 486.459,-244 486.459,-244 486.459,-250 480.459,-256 474.459,-256 474.459,-256 327.836,-256 327.836,-256 321.836,-256 315.836,-250 315.836,-244 315.836,-244 315.836,-197 315.836,-197 315.836,-191 321.836,-185 327.836,-185"/>
<text text-anchor="middle" x="401.148" y="-243.2" font-family="Times,serif" font-size="11.00" fill="gray">Core</text>
</g>
<g id="clust7" class="cluster"><title>cluster_\Models</title>
<path fill="none" stroke="gray" d="M82.3118,-511C82.3118,-511 454.656,-511 454.656,-511 460.656,-511 466.656,-517 466.656,-523 466.656,-523 466.656,-678 466.656,-678 466.656,-684 460.656,-690 454.656,-690 454.656,-690 82.3118,-690 82.3118,-690 76.3118,-690 70.3118,-684 70.3118,-678 70.3118,-678 70.3118,-523 70.3118,-523 70.3118,-517 76.3118,-511 82.3118,-511"/>
<text text-anchor="middle" x="268.484" y="-677.2" font-family="Times,serif" font-size="11.00" fill="gray">Models</text>
</g>
<g id="clust8" class="cluster"><title>cluster_\Tests</title>
<path fill="none" stroke="gray" d="M364.142,-106C364.142,-106 438.153,-106 438.153,-106 444.153,-106 450.153,-112 450.153,-118 450.153,-118 450.153,-165 450.153,-165 450.153,-171 444.153,-177 438.153,-177 438.153,-177 364.142,-177 364.142,-177 358.142,-177 352.142,-171 352.142,-165 352.142,-165 352.142,-118 352.142,-118 352.142,-112 358.142,-106 364.142,-106"/>
<text text-anchor="middle" x="401.148" y="-164.2" font-family="Times,serif" font-size="11.00" fill="gray">Tests</text>
</g>
<g id="clust9" class="cluster"><title>cluster_\Widgets</title>
<path fill="none" stroke="gray" d="M88.9129,-264C88.9129,-264 456.055,-264 456.055,-264 462.055,-264 468.055,-270 468.055,-276 468.055,-276 468.055,-491 468.055,-491 468.055,-497 462.055,-503 456.055,-503 456.055,-503 88.9129,-503 88.9129,-503 82.9129,-503 76.9129,-497 76.9129,-491 76.9129,-491 76.9129,-276 76.9129,-276 76.9129,-270 82.9129,-264 88.9129,-264"/>
<text text-anchor="middle" x="272.484" y="-490.2" font-family="Times,serif" font-size="11.00" fill="gray">Widgets</text>
</g>
<g id="clust10" class="cluster"><title>cluster_\Widgets\Hints</title>
<path fill="none" stroke="gray" d="M378.148,-405C378.148,-405 424.148,-405 424.148,-405 430.148,-405 436.148,-411 436.148,-417 436.148,-417 436.148,-464 436.148,-464 436.148,-470 430.148,-476 424.148,-476 424.148,-476 378.148,-476 378.148,-476 372.148,-476 366.148,-470 366.148,-464 366.148,-464 366.148,-417 366.148,-417 366.148,-411 372.148,-405 378.148,-405"/>
<text text-anchor="middle" x="401.148" y="-463.2" font-family="Times,serif" font-size="11.00" fill="gray">Hints</text>
</g>
<g id="clust11" class="cluster"><title>cluster_\Widgets\PhotoGallery</title>
<path fill="none" stroke="gray" d="M354.241,-272C354.241,-272 448.055,-272 448.055,-272 454.055,-272 460.055,-278 460.055,-284 460.055,-284 460.055,-385 460.055,-385 460.055,-391 454.055,-397 448.055,-397 448.055,-397 354.241,-397 354.241,-397 348.241,-397 342.241,-391 342.241,-385 342.241,-385 342.241,-284 342.241,-284 342.241,-278 348.241,-272 354.241,-272"/>
<text text-anchor="middle" x="401.148" y="-384.2" font-family="Times,serif" font-size="11.00" fill="gray">PhotoGallery</text>
</g>
<!-- \\Components\\FileUploader\\UploadedFile -->
<g id="node1" class="node"><title>\\Components\\FileUploader\\UploadedFile</title>
<polygon fill="none" stroke="black" points="173.631,-962 78.2051,-962 78.2051,-926 173.631,-926 173.631,-962"/>
<text text-anchor="start" x="92.9129" y="-946.2" font-family="Courier,monospace" font-size="11.00">«abstract»</text>
<text text-anchor="start" x="86.3118" y="-935.2" font-family="Courier,monospace" font-size="11.00">UploadedFile</text>
</g>
<!-- \\Components\\FileUploader\\UploadedFileException -->
<g id="node2" class="node"><title>\\Components\\FileUploader\\UploadedFileException</title>
<polygon fill="none" stroke="black" points="478.271,-908 324.025,-908 324.025,-872 478.271,-872 478.271,-908"/>
<text text-anchor="middle" x="401.148" y="-886.7" font-family="Courier,monospace" font-size="11.00">UploadedFileException</text>
</g>
<!-- \\Exception -->
<g id="node19" class="node"><title>\\Exception</title>
<ellipse fill="none" stroke="black" cx="125.918" cy="-72" rx="48.3341" ry="18"/>
<text text-anchor="middle" x="125.918" y="-67.8" font-family="Times,serif" font-size="14.00" fill="gray">\Exception</text>
</g>
<!-- \\Components\\FileUploader\\UploadedFileException&#45;&gt;\\Exception -->
<g id="edge1" class="edge"><title>\\Components\\FileUploader\\UploadedFileException&#45;&gt;\\Exception</title>
<path fill="none" stroke="black" d="M328.81,-871.873C323.919,-868.557 319.492,-864.636 315.836,-860 232.821,-754.698 297.358,-386.126 251.836,-260 228.436,-195.164 178.217,-130.669 149.082,-96.6565"/>
<polygon fill="none" stroke="black" points="151.704,-94.3377 142.506,-89.0795 146.417,-98.926 151.704,-94.3377"/>
</g>
<!-- \\Components\\FileUploader\\UploadedPhoto -->
<g id="node3" class="node"><title>\\Components\\FileUploader\\UploadedPhoto</title>
<polygon fill="none" stroke="black" points="451.962,-962 350.334,-962 350.334,-926 451.962,-926 451.962,-962"/>
<text text-anchor="middle" x="401.148" y="-940.7" font-family="Courier,monospace" font-size="11.00">UploadedPhoto</text>
</g>
<!-- \\Components\\FileUploader\\UploadedPhoto&#45;&gt;\\Components\\FileUploader\\UploadedFile -->
<g id="edge2" class="edge"><title>\\Components\\FileUploader\\UploadedPhoto&#45;&gt;\\Components\\FileUploader\\UploadedFile</title>
<path fill="none" stroke="black" d="M350.033,-944C303.145,-944 233.162,-944 184.109,-944"/>
<polygon fill="none" stroke="black" points="183.976,-940.5 173.976,-944 183.975,-947.5 183.976,-940.5"/>
</g>
<!-- \\Components\\Notifications\\Notification -->
<g id="node4" class="node"><title>\\Components\\Notifications\\Notification</title>
<polygon fill="none" stroke="black" points="448.861,-829 353.435,-829 353.435,-793 448.861,-793 448.861,-829"/>
<text text-anchor="middle" x="401.148" y="-807.7" font-family="Courier,monospace" font-size="11.00">Notification</text>
</g>
<!-- \\Controllers\\Control -->
<g id="node5" class="node"><title>\\Controllers\\Control</title>
<polygon fill="none" stroke="black" points="166.929,-742 84.9075,-742 84.9075,-706 166.929,-706 166.929,-742"/>
<text text-anchor="start" x="92.9129" y="-726.2" font-family="Courier,monospace" font-size="11.00">«abstract»</text>
<text text-anchor="start" x="102.814" y="-715.2" font-family="Courier,monospace" font-size="11.00">Control</text>
</g>
<!-- \\Controllers\\PhotosControl -->
<g id="node6" class="node"><title>\\Controllers\\PhotosControl</title>
<polygon fill="none" stroke="black" points="451.962,-742 350.334,-742 350.334,-706 451.962,-706 451.962,-742"/>
<text text-anchor="middle" x="401.148" y="-720.7" font-family="Courier,monospace" font-size="11.00">PhotosControl</text>
</g>
<!-- \\Controllers\\PhotosControl&#45;&gt;\\Controllers\\Control -->
<g id="edge3" class="edge"><title>\\Controllers\\PhotosControl&#45;&gt;\\Controllers\\Control</title>
<path fill="none" stroke="black" d="M350.033,-724C300.843,-724 226.237,-724 177.043,-724"/>
<polygon fill="none" stroke="black" points="176.95,-720.5 166.95,-724 176.95,-727.5 176.95,-720.5"/>
</g>
<!-- \\Core\\FileNotFoundException -->
<g id="node7" class="node"><title>\\Core\\FileNotFoundException</title>
<polygon fill="none" stroke="black" points="478.271,-229 324.025,-229 324.025,-193 478.271,-193 478.271,-229"/>
<text text-anchor="middle" x="401.148" y="-207.7" font-family="Courier,monospace" font-size="11.00">FileNotFoundException</text>
</g>
<!-- \\Core\\FileNotFoundException&#45;&gt;\\Exception -->
<g id="edge4" class="edge"><title>\\Core\\FileNotFoundException&#45;&gt;\\Exception</title>
<path fill="none" stroke="black" d="M344.693,-192.89C334.953,-189.251 325.005,-185.234 315.836,-181 258.791,-154.659 196.323,-116.669 159.431,-93.1993"/>
<polygon fill="none" stroke="black" points="160.931,-90.0039 150.621,-87.5612 157.157,-95.8998 160.931,-90.0039"/>
</g>
<!-- \\Models\\Connection -->
<g id="node8" class="node"><title>\\Models\\Connection</title>
<polygon fill="none" stroke="black" points="442.158,-663 360.137,-663 360.137,-627 442.158,-627 442.158,-663"/>
<text text-anchor="middle" x="401.148" y="-641.7" font-family="Courier,monospace" font-size="11.00">Connection</text>
</g>
<!-- \\Models\\PhotoRecord -->
<g id="node9" class="node"><title>\\Models\\PhotoRecord</title>
<polygon fill="none" stroke="black" points="445.26,-609 357.035,-609 357.035,-573 445.26,-573 445.26,-609"/>
<text text-anchor="middle" x="401.148" y="-587.7" font-family="Courier,monospace" font-size="11.00">PhotoRecord</text>
</g>
<!-- \\Models\\ActiveRecord -->
<g id="node11" class="node"><title>\\Models\\ActiveRecord</title>
<polygon fill="none" stroke="black" points="173.631,-609 78.2051,-609 78.2051,-573 173.631,-573 173.631,-609"/>
<text text-anchor="middle" x="125.918" y="-587.7" font-family="Courier,monospace" font-size="11.00">ActiveRecord</text>
</g>
<!-- \\Models\\PhotoRecord&#45;&gt;\\Models\\ActiveRecord -->
<g id="edge5" class="edge"><title>\\Models\\PhotoRecord&#45;&gt;\\Models\\ActiveRecord</title>
<path fill="none" stroke="black" stroke-dasharray="1,5" d="M356.854,-591C310.116,-591 235.464,-591 183.967,-591"/>
<polygon fill="none" stroke="black" points="183.67,-587.5 173.67,-591 183.67,-594.5 183.67,-587.5"/>
</g>
<!-- \\Models\\Walkable -->
<g id="node13" class="node"><title>\\Models\\Walkable</title>
<polygon fill="none" stroke="black" points="160.227,-663 91.6094,-663 91.6094,-627 160.227,-627 160.227,-663"/>
<text text-anchor="middle" x="125.918" y="-641.7" font-family="Courier,monospace" font-size="11.00">Walkable</text>
</g>
<!-- \\Models\\PhotoRecord&#45;&gt;\\Models\\Walkable -->
<g id="edge6" class="edge"><title>\\Models\\PhotoRecord&#45;&gt;\\Models\\Walkable</title>
<path fill="none" stroke="black" stroke-dasharray="1,5" d="M356.854,-599.556C305.893,-609.628 221.745,-626.259 170.612,-636.365"/>
<polygon fill="none" stroke="black" points="169.667,-632.984 160.535,-638.356 171.024,-639.851 169.667,-632.984"/>
</g>
<!-- \\Models\\PhotoRepository -->
<g id="node10" class="node"><title>\\Models\\PhotoRepository</title>
<polygon fill="none" stroke="black" points="458.664,-555 343.632,-555 343.632,-519 458.664,-519 458.664,-555"/>
<text text-anchor="middle" x="401.148" y="-533.7" font-family="Courier,monospace" font-size="11.00">PhotoRepository</text>
</g>
<!-- \\Models\\Repository -->
<g id="node12" class="node"><title>\\Models\\Repository</title>
<polygon fill="none" stroke="black" points="166.929,-555 84.9075,-555 84.9075,-519 166.929,-519 166.929,-555"/>
<text text-anchor="middle" x="125.918" y="-533.7" font-family="Courier,monospace" font-size="11.00">Repository</text>
</g>
<!-- \\Models\\PhotoRepository&#45;&gt;\\Models\\Repository -->
<g id="edge7" class="edge"><title>\\Models\\PhotoRepository&#45;&gt;\\Models\\Repository</title>
<path fill="none" stroke="black" stroke-dasharray="1,5" d="M343.534,-537C294.562,-537 224.412,-537 177.341,-537"/>
<polygon fill="none" stroke="black" points="177.076,-533.5 167.076,-537 177.076,-540.5 177.076,-533.5"/>
</g>
<!-- \\Tests\\TestCase -->
<g id="node14" class="node"><title>\\Tests\\TestCase</title>
<polygon fill="none" stroke="black" points="442.158,-150 360.137,-150 360.137,-114 442.158,-114 442.158,-150"/>
<text text-anchor="start" x="368.142" y="-134.2" font-family="Courier,monospace" font-size="11.00">«abstract»</text>
<text text-anchor="start" x="374.743" y="-123.2" font-family="Courier,monospace" font-size="11.00">TestCase</text>
</g>
<!-- \\PHPUnit_Framework_TestCase -->
<g id="node20" class="node"><title>\\PHPUnit_Framework_TestCase</title>
<ellipse fill="none" stroke="black" cx="125.918" cy="-18" rx="125.837" ry="18"/>
<text text-anchor="middle" x="125.918" y="-13.8" font-family="Times,serif" font-size="14.00" fill="gray">\PHPUnit_Framework_TestCase</text>
</g>
<!-- \\Tests\\TestCase&#45;&gt;\\PHPUnit_Framework_TestCase -->
<g id="edge8" class="edge"><title>\\Tests\\TestCase&#45;&gt;\\PHPUnit_Framework_TestCase</title>
<path fill="none" stroke="black" d="M375.164,-113.975C346.66,-94.2354 298.006,-62.9974 251.836,-45 241.204,-40.8552 229.801,-37.2861 218.367,-34.2285"/>
<polygon fill="none" stroke="black" points="218.884,-30.7485 208.329,-31.6717 217.156,-37.5319 218.884,-30.7485"/>
</g>
<!-- \\Widgets\\Hints\\Hints -->
<g id="node15" class="node"><title>\\Widgets\\Hints\\Hints</title>
<polygon fill="none" stroke="black" points="428.148,-449 374.148,-449 374.148,-413 428.148,-413 428.148,-449"/>
<text text-anchor="middle" x="401.148" y="-427.7" font-family="Courier,monospace" font-size="11.00">Hints</text>
</g>
<!-- \\Widgets\\Widget -->
<g id="node18" class="node"><title>\\Widgets\\Widget</title>
<polygon fill="none" stroke="black" points="166.929,-370 84.9075,-370 84.9075,-334 166.929,-334 166.929,-370"/>
<text text-anchor="start" x="92.9129" y="-354.2" font-family="Courier,monospace" font-size="11.00">«abstract»</text>
<text text-anchor="start" x="106.115" y="-343.2" font-family="Courier,monospace" font-size="11.00">Widget</text>
</g>
<!-- \\Widgets\\Hints\\Hints&#45;&gt;\\Widgets\\Widget -->
<g id="edge9" class="edge"><title>\\Widgets\\Hints\\Hints&#45;&gt;\\Widgets\\Widget</title>
<path fill="none" stroke="black" d="M373.949,-423.425C328.621,-410.319 234.852,-383.207 176.772,-366.414"/>
<polygon fill="none" stroke="black" points="177.645,-363.024 167.067,-363.608 175.701,-369.748 177.645,-363.024"/>
</g>
<!-- \\Widgets\\PhotoGallery\\GalleryButton -->
<g id="node16" class="node"><title>\\Widgets\\PhotoGallery\\GalleryButton</title>
<polygon fill="none" stroke="black" points="451.962,-370 350.334,-370 350.334,-334 451.962,-334 451.962,-370"/>
<text text-anchor="middle" x="401.148" y="-348.7" font-family="Courier,monospace" font-size="11.00">GalleryButton</text>
</g>
<!-- \\Widgets\\PhotoGallery\\GalleryButton&#45;&gt;\\Widgets\\Widget -->
<g id="edge10" class="edge"><title>\\Widgets\\PhotoGallery\\GalleryButton&#45;&gt;\\Widgets\\Widget</title>
<path fill="none" stroke="black" d="M350.033,-352C300.843,-352 226.237,-352 177.043,-352"/>
<polygon fill="none" stroke="black" points="176.95,-348.5 166.95,-352 176.95,-355.5 176.95,-348.5"/>
</g>
<!-- \\Widgets\\PhotoGallery\\GalleryPhoto -->
<g id="node17" class="node"><title>\\Widgets\\PhotoGallery\\GalleryPhoto</title>
<polygon fill="none" stroke="black" points="448.861,-316 353.435,-316 353.435,-280 448.861,-280 448.861,-316"/>
<text text-anchor="middle" x="401.148" y="-294.7" font-family="Courier,monospace" font-size="11.00">GalleryPhoto</text>
</g>
<!-- \\Widgets\\PhotoGallery\\GalleryPhoto&#45;&gt;\\Widgets\\Widget -->
<g id="edge11" class="edge"><title>\\Widgets\\PhotoGallery\\GalleryPhoto&#45;&gt;\\Widgets\\Widget</title>
<path fill="none" stroke="black" d="M353.488,-307.222C304.436,-316.916 227.531,-332.115 177.169,-342.069"/>
<polygon fill="none" stroke="black" points="176.288,-338.675 167.156,-344.048 177.645,-345.542 176.288,-338.675"/>
</g>
</g>
</svg>
